SplineFontDB: 3.0
FontName: cadastre_rm.TTF
FullName: cadastre_rm.TTF
FamilyName: cadastre_rm.TTF
Weight: Book
Copyright: Copyright (c) 2017, Arnaud LECLERE
Version: 001.000
ItalicAngle: 0
UnderlinePosition: -150
UnderlineWidth: 50
Ascent: 800
Descent: 200
InvalidEm: 0
sfntRevision: 0x00010000
LayerCount: 2
Layer: 0 1 "Arri+AOgA-re" 1
Layer: 1 1 "Avant" 0
XUID: [1021 2 1582400652 1369]
StyleMap: 0x0000
FSType: 0
OS2Version: 4
OS2_WeightWidthSlopeOnly: 0
OS2_UseTypoMetrics: 1
CreationTime: 1493277201
ModificationTime: 1493384496
PfmFamily: 17
TTFWeight: 400
TTFWidth: 5
LineGap: 90
VLineGap: 0
Panose: 2 0 5 3 0 0 0 0 0 0
OS2TypoAscent: 800
OS2TypoAOffset: 0
OS2TypoDescent: -200
OS2TypoDOffset: 0
OS2TypoLinegap: 90
OS2WinAscent: 1718
OS2WinAOffset: 0
OS2WinDescent: 1028
OS2WinDOffset: 0
HheadAscent: 1718
HheadAOffset: 0
HheadDescent: -1028
HheadDOffset: 0
OS2SubXSize: 650
OS2SubYSize: 699
OS2SubXOff: 0
OS2SubYOff: 140
OS2SupXSize: 650
OS2SupYSize: 699
OS2SupXOff: 0
OS2SupYOff: 479
OS2StrikeYSize: 49
OS2StrikeYPos: 258
OS2CapHeight: 1651
OS2Vendor: 'PfEd'
OS2CodePages: 00000001.00000000
OS2UnicodeRanges: 00000001.00000000.00000000.00000000
MarkAttachClasses: 1
DEI: 91125
ShortTable: cvt  2
  33
  633
EndShort
ShortTable: maxp 16
  1
  0
  27
  75
  10
  0
  0
  2
  0
  1
  1
  0
  64
  46
  0
  0
EndShort
LangName: 1033 "" "" "Regular"
GaspTable: 1 65535 2 0
Encoding: UnicodeBmp
UnicodeInterp: none
NameList: AGL For New Fonts
DisplaySize: -48
AntiAlias: 1
FitToEm: 0
WinInfo: 54 18 8
BeginPrivate: 0
EndPrivate
BeginChars: 65539 27

StartChar: .notdef
Encoding: 65536 -1 0
Width: 364
Flags: W
LayerCount: 2
Fore
SplineSet
33 0 m 1,0,-1
 33 666 l 1,1,-1
 298 666 l 1,2,-1
 298 0 l 1,3,-1
 33 0 l 1,0,-1
66 33 m 1,4,-1
 265 33 l 1,5,-1
 265 633 l 1,6,-1
 66 633 l 1,7,-1
 66 33 l 1,4,-1
EndSplineSet
EndChar

StartChar: A
Encoding: 65 65 3
Width: 1640
Flags: W
LayerCount: 2
Fore
SplineSet
795 1665 m 2,0,1
 805 1686 805 1686 821 1686 c 0,2,3
 838 1686 838 1686 848 1665 c 2,4,-1
 1667 14 l 2,5,6
 1673 2 1673 2 1673 -4 c 0,7,8
 1673 -31 1673 -31 1640 -31 c 2,9,-1
 0 -31 l 2,10,11
 -33 -31 -33 -31 -33 -4 c 0,12,13
 -33 2 -33 2 -27 14 c 2,14,-1
 795 1665 l 2,0,1
821 1581 m 1,15,-1
 49 31 l 1,16,-1
 1591 31 l 1,17,-1
 821 1581 l 1,15,-1
1288 203 m 1,18,-1
 817 1149 l 1,19,-1
 340 203 l 1,20,-1
 1288 203 l 1,18,-1
1337 141 m 2,21,-1
 291 141 l 2,22,23
 258 141 258 141 258 168 c 0,24,25
 258 174 258 174 264 186 c 2,26,-1
 791 1233 l 2,27,28
 801 1253 801 1253 817 1253 c 0,29,30
 834 1253 834 1253 844 1233 c 2,31,-1
 1364 186 l 2,32,33
 1370 174 1370 174 1370 168 c 0,34,35
 1370 141 1370 141 1337 141 c 2,21,-1
EndSplineSet
EndChar

StartChar: B
Encoding: 66 66 4
Width: 1636
Flags: W
LayerCount: 2
Fore
SplineSet
795 1665 m 2,0,1
 805 1686 805 1686 821 1686 c 0,2,3
 838 1686 838 1686 848 1665 c 2,4,-1
 1667 14 l 2,5,6
 1673 2 1673 2 1673 -4 c 0,7,8
 1673 -31 1673 -31 1640 -31 c 2,9,-1
 0 -31 l 2,10,11
 -33 -31 -33 -31 -33 -4 c 0,12,13
 -33 2 -33 2 -27 14 c 2,14,-1
 795 1665 l 2,0,1
821 1581 m 1,15,-1
 49 31 l 1,16,-1
 1591 31 l 1,17,-1
 821 1581 l 1,15,-1
1288 203 m 1,18,-1
 817 1149 l 1,19,-1
 340 203 l 1,20,-1
 1288 203 l 1,18,-1
1337 141 m 2,21,-1
 291 141 l 2,22,23
 258 141 258 141 258 168 c 0,24,25
 258 174 258 174 264 186 c 2,26,-1
 791 1233 l 2,27,28
 801 1253 801 1253 817 1253 c 0,29,30
 834 1253 834 1253 844 1233 c 2,31,-1
 1364 186 l 2,32,33
 1370 174 1370 174 1370 168 c 0,34,35
 1370 141 1370 141 1337 141 c 2,21,-1
1669 -4 m 1024,36,37
-33 -4 m 1024,38,39
817 1686 m 1024,40,41
49 31 m 1024,42,-1
813 760 m 256,43,44
 924 760 924 760 998 682.5 c 128,-1,45
 1072 605 1072 605 1072 493 c 256,46,47
 1072 381 1072 381 998 303.5 c 128,-1,48
 924 226 924 226 813 226 c 256,49,50
 702 226 702 226 627.5 303.5 c 128,-1,51
 553 381 553 381 553 493 c 0,52,53
 553 606 553 606 627.5 683 c 128,-1,54
 702 760 702 760 813 760 c 256,43,44
813 729 m 256,55,56
 715 729 715 729 649 661 c 128,-1,57
 583 593 583 593 583 493 c 0,58,59
 583 394 583 394 648.5 325.5 c 128,-1,60
 714 257 714 257 813 257 c 0,61,62
 911 257 911 257 976.5 325.5 c 128,-1,63
 1042 394 1042 394 1042 493 c 256,64,65
 1042 592 1042 592 976.5 660.5 c 128,-1,66
 911 729 911 729 813 729 c 256,55,56
EndSplineSet
EndChar

StartChar: C
Encoding: 67 67 5
Width: 917
Flags: W
LayerCount: 2
Fore
SplineSet
477 231 m 1024,0,1
403 1487 m 1024,2,3
735 1208 m 0,4,5
 792 1073 792 1073 792 804 c 0,6,7
 792 530 792 530 724 377 c 0,8,9
 658 229 658 229 479 147 c 1,10,-1
 479 74 l 1,11,12
 581 84 581 84 668 152 c 0,13,14
 772 231 772 231 809 350 c 0,15,16
 870 549 870 549 870 844 c 0,17,18
 870 1075 870 1075 838 1210 c 0,19,20
 788 1415 788 1415 649 1516 c 0,21,22
 564 1577 564 1577 483 1587 c 1,23,-1
 483 1487 l 1,24,25
 667 1370 667 1370 735 1208 c 0,4,5
446 40 m 1,26,-1
 448 43 l 1,27,28
 444 47 444 47 442 53 c 2,29,30
 442 53 442 53 442 54 c 1,31,32
 439 41 439 41 427 38 c 1,33,34
 427 38 427 38 430 35 c 2,35,-1
 444 35 l 1,36,-1
 446 40 l 1,26,-1
442 -2 m 0,37,38
 403 -2 403 -2 403 37 c 0,39,40
 403 47 403 47 406 54 c 2,41,-1
 410 1628 l 2,42,43
 410 1665 410 1665 446 1665 c 0,44,45
 455 1665 455 1665 461 1663 c 0,46,47
 604 1660 604 1660 721 1560 c 0,48,49
 844 1454 844 1454 887 1305 c 0,50,51
 944 1106 944 1106 944 844 c 0,52,53
 944 553 944 553 877 332 c 0,54,55
 831 186 831 186 712 92 c 0,56,57
 594 0 594 0 448 -2 c 2,58,59
 448 -2 448 -2 446 -2 c 2,60,61
 446 -2 446 -2 445 -2 c 2,62,63
 445 -2 445 -2 442 -2 c 0,37,38
479 207 m 1,64,65
 479 207 479 207 480 207 c 0,66,67
 632 282 632 282 680 390 c 1,68,69
 752 525 752 525 752 808 c 0,70,71
 752 1039 752 1039 694 1196 c 0,72,73
 645 1330 645 1330 483 1430 c 1,74,-1
 479 207 l 1,64,65
EndSplineSet
EndChar

StartChar: D
Encoding: 68 68 6
Width: 917
Flags: W
LayerCount: 2
Fore
SplineSet
515 1629 m 1,0,1
 514 1631 514 1631 512 1632 c 2,2,-1
 498 1632 l 1,3,-1
 494 1624 l 1,4,5
 498 1620 498 1620 500 1614 c 2,6,7
 500 1614 500 1614 500 1613 c 1,8,9
 503 1626 503 1626 515 1629 c 1,0,1
500 1669 m 0,10,11
 539 1669 539 1669 539 1630 c 0,12,13
 539 1622 539 1622 537 1616 c 2,14,-1
 532 39 l 2,15,16
 532 2 532 2 496 2 c 0,17,18
 487 2 487 2 480 4 c 0,19,20
 341 8 341 8 219 113 c 0,21,22
 98 215 98 215 55 362 c 0,23,24
 -2 561 -2 561 -2 823 c 0,25,26
 -2 1114 -2 1114 66 1335 c 0,27,28
 111 1481 111 1481 230 1575 c 0,29,30
 348 1667 348 1667 494 1669 c 2,31,32
 494 1669 494 1669 496 1669 c 2,33,34
 496 1669 496 1669 497 1669 c 2,35,36
 497 1669 497 1669 500 1669 c 0,10,11
459 80 m 1,37,-1
 463 1593 l 1,38,39
 361 1583 361 1583 274 1516 c 0,40,41
 170 1436 170 1436 133 1317 c 0,42,43
 72 1118 72 1118 72 823 c 0,44,45
 72 592 72 592 104 457 c 0,46,47
 154 252 154 252 293 152 c 0,48,49
 378 90 378 90 459 80 c 1,37,-1
EndSplineSet
EndChar

StartChar: E
Encoding: 69 69 7
Width: 1630
Flags: W
LayerCount: 2
Fore
SplineSet
815 1681 m 0,0,1
 1178 1681 1178 1681 1419.5 1434.5 c 128,-1,2
 1661 1188 1661 1188 1661 825 c 0,3,4
 1661 463 1661 463 1419.5 216 c 128,-1,5
 1178 -31 1178 -31 815 -31 c 0,6,7
 453 -31 453 -31 211 216 c 128,-1,8
 -31 463 -31 463 -31 825 c 0,9,10
 -31 1188 -31 1188 211 1434.5 c 128,-1,11
 453 1681 453 1681 815 1681 c 0,0,1
815 1620 m 256,12,13
 477 1620 477 1620 254 1391.5 c 128,-1,14
 31 1163 31 1163 31 825 c 256,15,16
 31 487 31 487 254 259 c 128,-1,17
 477 31 477 31 815 31 c 256,18,19
 1153 31 1153 31 1376 259 c 128,-1,20
 1599 487 1599 487 1599 825 c 256,21,22
 1599 1163 1599 1163 1376 1391.5 c 128,-1,23
 1153 1620 1153 1620 815 1620 c 256,12,13
EndSplineSet
EndChar

StartChar: F
Encoding: 70 70 8
Width: 1984
Flags: W
LayerCount: 2
Fore
SplineSet
1113 41 m 1,0,1
 1115 42 1115 42 1116 43 c 2,2,-1
 842 49 l 1,3,-1
 838 1698 l 1,4,5
 996 1693 996 1693 1131 1693 c 0,6,7
 1198 1693 1198 1693 1260 1694 c 1,8,-1
 1260 47 l 1,9,10
 1148 45 1148 45 1113 41 c 1,0,1
1113 41 m 1,11,12
 1108 39 1108 39 1100 39 c 1,13,14
 1104 40 1104 40 1113 41 c 1,11,12
EndSplineSet
EndChar

StartChar: G
Encoding: 71 71 9
Width: 1363
Flags: W
LayerCount: 2
Fore
SplineSet
874 387 m 1,0,-1
 1110 391 l 1,1,-1
 1126 0 l 1,2,-1
 872 0 l 1,3,-1
 874 387 l 1,0,-1
872 1651 m 1,4,-1
 1106 1651 l 1,5,6
 1104 1616 1104 1616 1104 1564 c 128,-1,7
 1104 1512 1104 1512 1106 1442 c 0,8,9
 1110 1300 1110 1300 1110 1233 c 1,10,-1
 872 1233 l 1,11,-1
 872 1651 l 1,4,-1
883 1012 m 1,12,-1
 1118 1010 l 1,13,-1
 1126 602 l 1,14,-1
 891 602 l 1,15,-1
 883 1012 l 1,12,-1
EndSplineSet
EndChar

StartChar: H
Encoding: 72 72 10
Width: 2609
Flags: W
LayerCount: 2
Fore
SplineSet
1688 807 m 1,0,-1
 946 1473 l 2,1,2
 903 1511 903 1511 903 1561 c 0,3,4
 903 1610 903 1610 940 1648 c 128,-1,5
 977 1686 977 1686 1026 1686 c 0,6,7
 1069 1686 1069 1686 1106 1653 c 2,8,-1
 1867 970 l 1,9,-1
 2617 1647 l 2,10,11
 2656 1681 2656 1681 2697 1681 c 0,12,13
 2746 1681 2746 1681 2783 1643.5 c 128,-1,14
 2820 1606 2820 1606 2820 1556 c 0,15,16
 2820 1509 2820 1509 2777 1470 c 2,17,-1
 2046 809 l 1,18,-1
 2769 160 l 2,19,20
 2812 121 2812 121 2812 72 c 128,-1,21
 2812 23 2812 23 2775 -15 c 128,-1,22
 2738 -53 2738 -53 2689 -53 c 0,23,24
 2646 -53 2646 -53 2609 -20 c 2,25,-1
 1866 647 l 1,26,-1
 1106 -39 l 2,27,28
 1067 -74 1067 -74 1026 -74 c 0,29,30
 977 -74 977 -74 940 -36 c 128,-1,31
 903 2 903 2 903 51 c 0,32,33
 903 98 903 98 946 137 c 2,34,-1
 1688 807 l 1,0,-1
EndSplineSet
EndChar

StartChar: I
Encoding: 73 73 11
Width: 1085
Flags: W
LayerCount: 2
Fore
SplineSet
446 1645 m 1,0,1
 594 1645 594 1645 754.5 1568 c 128,-1,2
 915 1491 915 1491 1006 1376 c 0,3,4
 1192 1139 1192 1139 1192 827 c 0,5,6
 1192 489 1192 489 1018 248 c 0,7,8
 934 129 934 129 762 59 c 0,9,10
 604 -6 604 -6 446 -6 c 1,11,-1
 446 1645 l 1,0,1
446 -6 m 1024,12,-1
446 1645 m 1024,13,-1
EndSplineSet
EndChar

StartChar: J
Encoding: 74 74 12
Width: 1245
Flags: W
LayerCount: 2
Fore
SplineSet
1249 0 m 1,0,-1
 870 0 l 1,1,-1
 870 1651 l 1,2,-1
 1249 1651 l 1,3,-1
 1249 0 l 1,0,-1
379 0 m 1,4,-1
 0 0 l 1,5,-1
 0 1651 l 1,6,-1
 379 1651 l 1,7,-1
 379 0 l 1,4,-1
EndSplineSet
EndChar

StartChar: K
Encoding: 75 75 13
Width: 1261
Flags: W
LayerCount: 2
Fore
SplineSet
-10 1651 m 1,0,-1
 223 1651 l 1,1,-1
 223 1233 l 1,2,-1
 -10 1233 l 1,3,-1
 -10 1651 l 1,0,-1
0 1012 m 1,4,-1
 223 1006 l 1,5,-1
 223 616 l 1,6,-1
 0 608 l 1,7,-1
 0 1012 l 1,4,-1
0 383 m 1,8,-1
 227 379 l 1,9,-1
 240 0 l 1,10,-1
 0 0 l 1,11,-1
 0 383 l 1,8,-1
739 1653 m 1,12,-1
 948 1649 l 1,13,-1
 948 1231 l 1,14,-1
 735 1231 l 1,15,-1
 739 1653 l 1,12,-1
731 1008 m 1,16,-1
 958 1004 l 1,17,-1
 958 604 l 1,18,-1
 727 610 l 1,19,-1
 731 1008 l 1,16,-1
731 397 m 1,20,-1
 952 385 l 1,21,-1
 958 -2 l 1,22,-1
 731 2 l 1,23,-1
 731 397 l 1,20,-1
EndSplineSet
EndChar

StartChar: L
Encoding: 76 76 14
Width: 1638
Flags: W
LayerCount: 2
Fore
SplineSet
638 831 m 1,0,-1
 14 1466 l 2,1,2
 -23 1503 -23 1503 -23 1550 c 0,3,4
 -23 1599 -23 1599 15 1636 c 128,-1,5
 53 1673 53 1673 102 1673 c 0,6,7
 147 1673 147 1673 186 1634 c 2,8,-1
 806 1004 l 1,9,-1
 1427 1640 l 2,10,11
 1466 1679 1466 1679 1511 1679 c 0,12,13
 1561 1679 1561 1679 1598.5 1642.5 c 128,-1,14
 1636 1606 1636 1606 1636 1556 c 0,15,16
 1636 1509 1636 1509 1599 1473 c 2,17,-1
 974 832 l 1,18,-1
 1599 197 l 2,19,20
 1636 160 1636 160 1636 113 c 0,21,22
 1636 63 1636 63 1598.5 26.5 c 128,-1,23
 1561 -10 1561 -10 1511 -10 c 0,24,25
 1466 -10 1466 -10 1427 29 c 2,26,-1
 806 660 l 1,27,-1
 176 14 l 2,28,29
 137 -25 137 -25 92 -25 c 0,30,31
 43 -25 43 -25 5 12 c 128,-1,32
 -33 49 -33 49 -33 98 c 0,33,34
 -33 145 -33 145 4 182 c 2,35,-1
 638 831 l 1,0,-1
EndSplineSet
EndChar

StartChar: M
Encoding: 77 77 15
Width: 1476
Flags: W
LayerCount: 2
Fore
SplineSet
-2 819 m 0,0,1
 -2 961 -2 961 54.5 1138 c 128,-1,2
 111 1315 111 1315 193 1419 c 0,3,4
 283 1530 283 1530 440 1593 c 0,5,6
 584 1651 584 1651 739 1651 c 0,7,8
 887 1651 887 1651 1034.5 1581 c 128,-1,9
 1182 1511 1182 1511 1271 1396.5 c 128,-1,10
 1360 1282 1360 1282 1417.5 1123.5 c 128,-1,11
 1475 965 1475 965 1475 823 c 0,12,13
 1475 686 1475 686 1414.5 516 c 128,-1,14
 1354 346 1354 346 1268 244 c 0,15,16
 1174 133 1174 133 1029.5 66.5 c 128,-1,17
 885 0 885 0 739 0 c 0,18,19
 418 0 418 0 225 217 c 0,20,21
 131 324 131 324 64.5 501 c 128,-1,22
 -2 678 -2 678 -2 819 c 0,0,1
EndSplineSet
EndChar

StartChar: N
Encoding: 78 78 16
Width: 1265
Flags: W
LayerCount: 2
Fore
SplineSet
584 1651 m 2,0,1
 584 1681 584 1681 614 1681 c 2,2,-1
 625 1681 l 2,3,4
 655 1681 655 1681 655 1651 c 2,5,-1
 655 1196 l 1,6,-1
 1268 1196 l 2,7,8
 1298 1196 1298 1196 1298 1165 c 2,9,-1
 1298 1155 l 2,10,11
 1298 1124 1298 1124 1268 1124 c 2,12,-1
 655 1124 l 1,13,-1
 655 -6 l 2,14,15
 655 -37 655 -37 625 -37 c 2,16,-1
 614 -37 l 2,17,18
 584 -37 584 -37 584 -6 c 2,19,-1
 584 1124 l 1,20,-1
 -2 1124 l 2,21,22
 -33 1124 -33 1124 -33 1155 c 2,23,-1
 -33 1165 l 2,24,25
 -33 1196 -33 1196 -2 1196 c 2,26,-1
 584 1196 l 1,27,-1
 584 1651 l 2,0,1
EndSplineSet
EndChar

StartChar: O
Encoding: 79 79 17
Width: 1265
Flags: W
LayerCount: 2
Fore
SplineSet
614 1192 m 0,0,1
 922 1192 922 1192 1227 1626 c 0,2,3
 1239 1642 1239 1642 1255 1642 c 0,4,5
 1282 1642 1282 1642 1282 1614 c 2,6,7
 1282 1614 1282 1614 1282 1606 c 0,8,9
 1274 1530 1274 1530 1139 1389 c 0,10,11
 882 1120 882 1120 655 1107 c 1,12,-1
 655 -6 l 2,13,14
 655 -37 655 -37 625 -37 c 2,15,-1
 614 -37 l 2,16,17
 584 -37 584 -37 584 -6 c 2,18,-1
 584 1108 l 1,19,20
 320 1132 320 1132 70 1430 c 0,21,22
 -31 1548 -31 1548 -31 1602 c 0,23,24
 -31 1636 -31 1636 -4 1636 c 0,25,26
 14 1636 14 1636 27 1618 c 0,27,28
 307 1192 307 1192 614 1192 c 0,0,1
EndSplineSet
EndChar

StartChar: P
Encoding: 80 80 18
Width: 1617
Flags: W
LayerCount: 2
Fore
SplineSet
1618 1268 m 2,0,1
 1651 1268 1651 1268 1651 1241 c 0,2,3
 1651 1231 1651 1231 1645 1221 c 2,4,-1
 1375 804 l 1,5,-1
 1645 365 l 2,6,7
 1651 354 1651 354 1651 344 c 0,8,9
 1651 317 1651 317 1618 317 c 2,10,-1
 1060 317 l 1,11,-1
 844 -16 l 2,12,13
 831 -37 831 -37 817 -37 c 0,14,15
 805 -37 805 -37 791 -16 c 2,16,-1
 571 317 l 1,17,-1
 0 317 l 2,18,19
 -33 317 -33 317 -33 344 c 0,20,21
 -33 354 -33 354 -27 365 c 2,22,-1
 249 804 l 1,23,-1
 -27 1221 l 2,24,25
 -33 1231 -33 1231 -33 1241 c 0,26,27
 -33 1268 -33 1268 0 1268 c 2,28,-1
 540 1268 l 1,29,-1
 791 1667 l 2,30,31
 801 1683 801 1683 817 1683 c 0,32,33
 834 1683 834 1683 844 1667 c 2,34,-1
 1089 1268 l 1,35,-1
 1618 1268 l 2,0,1
1302 805 m 1,36,-1
 1055 1206 l 1,37,-1
 574 1206 l 1,38,-1
 322 805 l 1,39,-1
 603 379 l 1,40,-1
 1026 379 l 1,41,-1
 1302 805 l 1,36,-1
986 317 m 1,42,-1
 644 317 l 1,43,-1
 817 55 l 1,44,-1
 986 317 l 1,42,-1
1339 862 m 1,45,-1
 1561 1206 l 1,46,-1
 1128 1206 l 1,47,-1
 1339 862 l 1,45,-1
285 861 m 1,48,-1
 501 1206 l 1,49,-1
 57 1206 l 1,50,-1
 285 861 l 1,48,-1
1017 1268 m 1,51,-1
 817 1593 l 1,52,-1
 613 1268 l 1,53,-1
 1017 1268 l 1,51,-1
286 747 m 1,54,-1
 55 379 l 1,55,-1
 530 379 l 1,56,-1
 286 747 l 1,54,-1
1337 746 m 1,57,-1
 1100 379 l 1,58,-1
 1563 379 l 1,59,-1
 1337 746 l 1,57,-1
EndSplineSet
EndChar

StartChar: Q
Encoding: 81 81 19
Width: 1363
Flags: W
LayerCount: 2
Fore
SplineSet
764 1651 m 1,0,-1
 1141 1651 l 1,1,-1
 1141 1233 l 1,2,-1
 764 1233 l 1,3,-1
 764 1651 l 1,0,-1
774 1012 m 1,4,-1
 1151 1006 l 1,5,-1
 1151 606 l 1,6,-1
 764 606 l 1,7,-1
 774 1012 l 1,4,-1
764 358 m 1,8,-1
 1151 358 l 1,9,-1
 1151 0 l 1,10,-1
 764 0 l 1,11,-1
 764 358 l 1,8,-1
EndSplineSet
EndChar

StartChar: R
Encoding: 82 82 20
Width: 2494
Flags: W
LayerCount: 2
Fore
SplineSet
909 564 m 1,0,-1
 375 45 l 2,1,2
 317 -10 317 -10 248 -10 c 0,3,4
 170 -10 170 -10 113.5 46 c 128,-1,5
 57 102 57 102 57 180 c 0,6,7
 57 254 57 254 117 311 c 2,8,-1
 636 815 l 1,9,-1
 59 1346 l 2,10,11
 -4 1405 -4 1405 -4 1479 c 0,12,13
 -4 1554 -4 1554 52.5 1611.5 c 128,-1,14
 109 1669 109 1669 184 1669 c 0,15,16
 252 1669 252 1669 309 1616 c 2,17,-1
 901 1072 l 1,18,-1
 1436 1591 l 2,19,20
 1493 1647 1493 1647 1563 1647 c 0,21,22
 1640 1647 1640 1647 1696.5 1590.5 c 128,-1,23
 1753 1534 1753 1534 1753 1456 c 0,24,25
 1753 1382 1753 1382 1694 1325 c 2,26,-1
 1174 820 l 1,27,-1
 1694 342 l 2,28,29
 1757 283 1757 283 1757 209 c 128,-1,30
 1757 135 1757 135 1699.5 76.5 c 128,-1,31
 1642 18 1642 18 1569 18 c 0,32,33
 1501 18 1501 18 1444 72 c 2,34,-1
 909 564 l 1,0,-1
EndSplineSet
EndChar

StartChar: S
Encoding: 83 83 21
Width: 1261
Flags: W
LayerCount: 2
Fore
SplineSet
-10 1651 m 1,0,-1
 367 1651 l 1,1,-1
 367 1233 l 1,2,-1
 -10 1233 l 1,3,-1
 -10 1651 l 1,0,-1
0 1012 m 1,4,-1
 377 1006 l 1,5,-1
 377 606 l 1,6,-1
 -10 606 l 1,7,-1
 0 1012 l 1,4,-1
-10 358 m 1,8,-1
 377 358 l 1,9,-1
 377 0 l 1,10,-1
 -10 0 l 1,11,-1
 -10 358 l 1,8,-1
881 1647 m 1,12,-1
 1257 1647 l 1,13,-1
 1257 1229 l 1,14,-1
 881 1229 l 1,15,-1
 881 1647 l 1,12,-1
891 1008 m 1,16,-1
 1268 1001 l 1,17,-1
 1268 602 l 1,18,-1
 881 602 l 1,19,-1
 891 1008 l 1,16,-1
881 354 m 1,20,-1
 1268 354 l 1,21,-1
 1268 -4 l 1,22,-1
 881 -4 l 1,23,-1
 881 354 l 1,20,-1
EndSplineSet
EndChar

StartChar: T
Encoding: 84 84 22
Width: 1638
Flags: W
LayerCount: 2
Fore
SplineSet
816 570 m 1,0,-1
 270 8 l 2,1,2
 213 -51 213 -51 139 -51 c 0,3,4
 63 -51 63 -51 6 6 c 128,-1,5
 -51 63 -51 63 -51 139 c 0,6,7
 -51 209 -51 209 4 266 c 2,8,-1
 553 832 l 1,9,-1
 -10 1393 l 2,10,11
 -70 1452 -70 1452 -70 1522 c 0,12,13
 -70 1597 -70 1597 -12.5 1654.5 c 128,-1,14
 45 1712 45 1712 121 1712 c 0,15,16
 190 1712 190 1712 248 1655 c 2,17,-1
 809 1096 l 1,18,-1
 1356 1659 l 2,19,20
 1413 1718 1413 1718 1487 1718 c 0,21,22
 1563 1718 1563 1718 1620 1661 c 128,-1,23
 1677 1604 1677 1604 1677 1528 c 0,24,25
 1677 1458 1677 1458 1622 1401 c 2,26,-1
 1072 834 l 1,27,-1
 1636 272 l 2,28,29
 1696 213 1696 213 1696 143 c 0,30,31
 1696 68 1696 68 1638.5 10.5 c 128,-1,32
 1581 -47 1581 -47 1505 -47 c 0,33,34
 1436 -47 1436 -47 1378 10 c 2,35,-1
 816 570 l 1,0,-1
EndSplineSet
EndChar

StartChar: U
Encoding: 85 85 23
Width: 747
Flags: W
LayerCount: 2
Fore
SplineSet
371 4 m 1,0,-1
 354 10 l 1,1,-1
 371 43 l 1,2,-1
 387 78 l 1,3,-1
 424 168 l 1,4,-1
 438 213 l 1,5,-1
 477 322 l 1,6,-1
 506 428 l 1,7,-1
 532 555 l 1,8,-1
 545 621 l 1,9,-1
 557 733 l 1,10,-1
 561 809 l 1,11,-1
 563 899 l 1,12,-1
 555 985 l 1,13,-1
 543 1075 l 1,14,-1
 526 1145 l 1,15,-1
 506 1204 l 1,16,-1
 469 1288 l 1,17,-1
 358 1221 l 1,18,-1
 252 1651 l 1,19,-1
 645 1421 l 1,20,-1
 549 1348 l 1,21,-1
 565 1296 l 1,22,-1
 586 1227 l 1,23,-1
 600 1174 l 1,24,-1
 629 1026 l 1,25,-1
 635 948 l 1,26,-1
 637 879 l 1,27,-1
 635 793 l 1,28,-1
 629 719 l 1,29,-1
 621 653 l 1,30,-1
 606 578 l 1,31,-1
 582 477 l 1,32,-1
 561 414 l 1,33,-1
 510 272 l 1,34,-1
 479 205 l 1,35,-1
 416 80 l 1,36,-1
 383 27 l 1,37,-1
 371 4 l 1,0,-1
EndSplineSet
EndChar

StartChar: V
Encoding: 86 86 24
Width: 1150
Flags: W
LayerCount: 2
Fore
SplineSet
213 879 m 1,0,-1
 225 856 l 1,1,-1
 262 799 l 1,2,-1
 330 662 l 1,3,-1
 362 590 l 1,4,-1
 385 530 l 1,5,-1
 418 438 l 1,6,-1
 440 369 l 1,7,-1
 465 262 l 1,8,-1
 481 178 l 1,9,-1
 492 106 l 1,10,-1
 498 29 l 1,11,-1
 500 -66 l 1,12,-1
 498 -139 l 1,13,-1
 492 -225 l 1,14,-1
 475 -313 l 1,15,-1
 459 -383 l 1,16,-1
 446 -440 l 1,17,-1
 424 -516 l 1,18,-1
 403 -571 l 1,19,-1
 508 -649 l 1,20,-1
 39 -958 l 1,21,-1
 201 -434 l 1,22,-1
 317 -506 l 1,23,-1
 358 -418 l 1,24,-1
 379 -352 l 1,25,-1
 399 -276 l 1,26,-1
 412 -178 l 1,27,-1
 420 -86 l 1,28,-1
 418 12 l 1,29,-1
 414 94 l 1,30,-1
 399 215 l 1,31,-1
 387 285 l 1,32,-1
 373 360 l 1,33,-1
 358 424 l 1,34,-1
 328 537 l 1,35,-1
 270 702 l 1,36,-1
 229 801 l 1,37,-1
 213 838 l 1,38,-1
 195 872 l 1,39,-1
 213 879 l 1,0,-1
EndSplineSet
EndChar

StartChar: W
Encoding: 87 87 25
Width: 1144
Flags: W
LayerCount: 2
Fore
SplineSet
266 -889 m 1,0,-1
 197 955 l 1,1,2
 277 957 277 957 280 958 c 2,3,4
 280 958 280 958 276 958 c 1,5,6
 301 958 301 958 356 954 c 1,7,-1
 266 -889 l 1,0,-1
266 -890 m 1,8,-1
 500 -469 l 1,9,-1
 510 -466 l 2,10,11
 517 -467 517 -467 516 -469 c 2,12,-1
 266 -1028 l 1,13,-1
 8 -469 l 1,14,15
 13 -468 13 -468 18 -466 c 1,16,-1
 266 -890 l 1,8,-1
EndSplineSet
EndChar

StartChar: X
Encoding: 88 88 26
Width: 1433
Flags: W
LayerCount: 2
Fore
SplineSet
1162 542 m 1,0,-1
 307 542 l 1,1,2
 324 398 324 398 430 292 c 0,3,4
 555 166 555 166 734 166 c 128,-1,5
 913 166 913 166 1039 292 c 0,6,7
 1145 398 1145 398 1162 542 c 1,0,-1
734 1028 m 0,8,9
 555 1028 555 1028 430 902 c 0,10,11
 319 791 319 791 306 640 c 1,12,-1
 1163 640 l 1,13,14
 1150 791 1150 791 1040 902 c 0,15,16
 914 1028 914 1028 734 1028 c 0,8,9
1512 1105 m 1,17,-1
 1988 1104 l 1,18,-1
 1988 1005 l 1,19,-1
 1618 1005 l 1,20,-1
 1618 543 l 1,21,-1
 1592 543 l 1,22,-1
 1592 542 l 1,23,-1
 1328 542 l 1,24,25
 1311 330 1311 330 1156 176 c 0,26,27
 982 2 982 2 734 2 c 0,28,29
 489 2 489 2 315 176 c 0,30,31
 160 330 160 330 143 542 c 1,32,-1
 -114 542 l 1,33,-1
 -114 640 l 1,34,-1
 142 640 l 1,35,36
 157 858 157 858 314 1016 c 0,37,38
 486 1190 486 1190 734 1190 c 0,39,40
 984 1190 984 1190 1157 1016 c 0,41,42
 1314 858 1314 858 1329 640 c 1,43,-1
 1512 640 l 1,44,-1
 1512 1105 l 1,17,-1
EndSplineSet
EndChar
